<svg width="100" height="100" viewBox="0 0 100 100" fill="none" xmlns="http://www.w3.org/2000/svg">
<path d="M61.8886 78.1673C77.4141 71.6322 84.6773 53.8077 78.1114 38.3551C71.5455 22.9025 53.6369 15.6735 38.1114 22.2085C22.5859 28.7436 15.3227 46.568 21.8886 62.0206C28.4545 77.4732 46.3631 84.7023 61.8886 78.1673Z" fill="#F7B116"/>
<path d="M50.0057 76.6716C55.476 76.6716 60.5656 75.023 64.8033 72.2022H35.2074C39.4464 75.0224 44.5359 76.6716 50.0057 76.6716Z" fill="#1668F7"/>
<path d="M52.528 46.2975H47.4839C43.7319 46.2975 40.5797 48.8674 39.6878 52.3291H60.3241C59.4322 48.8674 56.2805 46.2975 52.528 46.2975Z" fill="#C1A699"/>
<path d="M30.714 68.4368H69.2973C70.5546 67.1266 71.6791 65.6913 72.649 64.1484H27.3629C28.3321 65.6913 29.4573 67.1266 30.714 68.4368Z" fill="#158DF9"/>
<path d="M25.3936 60.383H74.6182C75.1997 59.0087 75.6613 57.574 76.0054 56.0946H24.0064C24.35 57.574 24.8122 59.0087 25.3936 60.383Z" fill="#39C2FF"/>
<path d="M47.4839 47.8832H52.528C55.679 47.8832 58.4009 49.6987 59.722 52.3291H60.3241C59.4322 48.8674 56.2805 46.2975 52.528 46.2975H47.4839C43.7319 46.2975 40.5797 48.8674 39.6878 52.3291H40.2899C41.611 49.6987 44.3329 47.8832 47.4839 47.8832Z" fill="#EFECEB"/>
<path d="M68.5098 32.3948H59.4652V35.9958H68.5098V32.3948Z" fill="#1F2627"/>
<path d="M33.7966 42.1684H27.4225V45.7693H33.7966V42.1684Z" fill="#1F2627"/>
<path d="M83.9279 42.1684H79.4262C76.79 32.4119 69.3823 24.4426 59.3601 21.2288L59.0792 22.0972C59.9888 23.0749 60.8288 24.2793 61.5378 25.7728L61.7627 26.2463C68.4059 29.4754 73.329 35.2608 75.4878 42.169H72.041V45.7699H76.3413C76.5739 47.1853 76.6979 48.6335 76.6979 50.1053C76.6979 50.855 76.6589 51.5953 76.5975 52.3297H64.1965C63.2443 46.7752 58.3761 42.5326 52.5286 42.5326H47.4845C47.282 42.5326 47.0807 42.5379 46.8806 42.5479C43.3612 36.3888 42.8978 30.7697 45.4639 25.0795C47.2117 26.5477 50.0068 29.8338 47.6055 34.5428L50.979 36.2467C53.6094 31.0887 51.9837 26.7822 49.6361 23.9456C51.8574 23.982 54.5846 24.8351 56.218 28.2751L59.6382 26.6658C57.212 21.5561 52.9412 20.1425 49.3038 20.1813C50.8332 18.6596 53.2352 17.3946 56.7274 18.4428L57.8195 14.8377C52.7252 13.309 48.9643 15.1497 46.5299 17.6191C45.5016 14.3136 43.0053 10.963 37.774 10L37.0863 13.7026C40.6954 14.3671 42.2503 16.585 42.9037 18.642C39.6872 16.9422 35.2316 16.2431 30.7146 19.6854L33.0144 22.6748C36.0675 20.3481 38.8808 20.8299 40.8725 21.8205C37.4753 23.2687 34.0386 26.3574 34.0032 32.1498L37.7864 32.1727C37.8065 28.8796 39.369 27.0013 41.0832 25.9291C39.2226 31.6246 39.8725 37.3906 43.0377 43.3981C39.3017 44.911 36.5125 48.2687 35.816 52.3297H23.4143C23.353 51.5953 23.3134 50.855 23.3134 50.1053C23.3134 45.7905 24.3393 41.6578 26.2472 37.9681H32.6762V34.3672H28.4992C29.5287 32.9824 30.6957 31.6857 32.0009 30.5018C32.126 29.3403 32.3733 28.2827 32.721 27.3227L31.6384 25.8979C28.4945 28.2645 25.9095 31.1434 23.9379 34.3672H20.0567V37.9681H22.0525C20.4068 41.7301 19.5296 45.8404 19.5296 50.1053C19.5296 66.8305 33.201 80.4376 50.0051 80.4376C66.8092 80.4376 80.4805 66.8305 80.4805 50.1053C80.4805 48.6371 80.3701 47.19 80.1665 45.7699H83.9273V42.1684H83.9279ZM47.4839 46.2975H52.528C56.2805 46.2975 59.4322 48.8674 60.3241 52.3291H39.6878C40.5797 48.8674 43.7319 46.2975 47.4839 46.2975ZM50.0056 76.6716C44.5353 76.6716 39.4457 75.023 35.208 72.2022H64.8039C60.5655 75.0224 55.476 76.6716 50.0056 76.6716ZM69.2973 68.4362H30.714C29.4567 67.1266 28.3321 65.6907 27.3623 64.1478H72.6484C71.6791 65.6912 70.5546 67.1266 69.2973 68.4362ZM74.6182 60.3829H25.3936C24.8122 59.0087 24.35 57.574 24.0064 56.0946H76.0055C75.6613 57.574 75.1997 59.0087 74.6182 60.3829Z" fill="#1F2627"/>
</svg>
